<?xml version="1.0" encoding="iso-8859-1"?>
<?xml-stylesheet type="text/css" href="/stylesheets/svg.css"?>
<?xml-stylesheet type="text/css" href="/stylesheets/highlights.css"?>
<!-- Generator: Adobe Illustrator 16.0.0, SVG Export Plug-In . SVG Version: 6.00 Build 0)  -->
<!DOCTYPE svg PUBLIC "-//W3C//DTD SVG 1.1//EN" "http://www.w3.org/Graphics/SVG/1.1/DTD/svg11.dtd">
<svg version="1.1" xmlns="http://www.w3.org/2000/svg" xmlns:xlink="http://www.w3.org/1999/xlink" x="0px" y="0px"
	 width="163.334px" height="110.981px" viewBox="0 0 163.334 110.981" style="enable-background:new 0 0 163.334 110.981;"
	 xml:space="preserve">
<g id="Old_x5F_Curves">
</g>
<g id="district_1">
	<polygon points="90.137,83.18 93.42,85.17
		103.335,78.056 99.849,74.885 91.558,80.522 	"/>
</g>
<g id="district_2">
	<polygon points="90.157,88.348 82.841,85.805
		83.525,83.21 87.182,80.824 89.264,80.965 90.137,83.18 	"/>
</g>
<g id="district_3">
	<polygon points="71.246,80.898 71.497,70.987
		79.704,73.044 86.267,75.098 86.202,78.998 87.182,80.824 83.525,83.21 	"/>
</g>
<g id="district_4">
	<polygon points="83.525,83.21 82.841,85.805
		76.612,87.335 72.702,86.477 71.246,80.898 	"/>
</g>
<g id="district_5">
	<polygon points="57.5,78.522 49.219,69.673
		51.1,63.472 54.825,62.929 55.802,60.235 57.051,62.968 59.939,62.109 58.847,64.803 59.705,67.575 67.396,72.315 71.497,70.987
		71.246,80.898 72.702,86.477 61.413,81.171 58.553,85.061 50.913,80.534 52.391,78.569 57.842,81.091 58.936,79.398 	"/>
</g>
<g id="district_6">
	<polygon points="87.182,80.824 86.202,78.998
		86.267,75.098 88.792,75.366 90.702,77.627 91.558,80.522 90.137,83.18 89.264,80.965 	"/>
</g>
<g id="district_7">
	<polygon points="91.558,80.522 90.702,77.627
		88.792,75.366 89.935,73.165 93.49,69.514 97.763,71.876 101.208,73.947 99.849,74.885 	"/>
</g>
<g id="district_8">
	<polygon points="88.792,75.366 87.535,64.813
		93.85,64.91 96.822,65.721 99.087,68.454 97.763,71.876 93.49,69.514 89.935,73.165 	"/>
</g>
<g id="district_9">
	<polygon points="79.704,73.044 81.8,64.862
		87.535,64.813 88.792,75.366 86.267,75.098 	"/>
</g>
<g id="district_10">
	<polygon points="59.705,67.575 58.847,64.803
		62.126,65.468 64.75,63.697 63.771,57.847 70.423,59.824 76.015,62.572 81.8,64.862 79.704,73.044 71.497,70.987 67.396,72.315
		"/>
</g>
<g id="district_11">
	<polygon points="57.449,50.588 61.209,58.1
		63.771,57.847 70.423,59.824 76.015,62.572 81.8,64.862 87.535,64.813 87.324,57.181 86.146,54.824 79.263,54.871 76.702,53.163
		68.342,51.574 63.656,50.448 	"/>
</g>
<g id="district_12">
	<polygon points="87.535,64.813 87.324,57.181
		91.371,55.66 97.22,55.82 96.822,65.721 93.85,64.91 	"/>
</g>
<g id="district_13">
	<polygon points="97.763,71.876 101.208,73.947
		109.328,69.926 105.435,70.133 104.851,63.781 106.466,62.832 104.354,55.917 97.22,55.82 96.822,65.721 99.087,68.454 	"/>
</g>
<g id="district_14">
	<polygon points="105.435,70.133 104.851,63.781
		106.466,62.832 114.86,53.265 121.762,54.42 116.523,60.647 117.726,61.817 120.255,60.743 122.152,63.557 112.109,66.019
		109.523,68.286 109.328,69.926 	"/>
</g>
<g id="district_15">
	<polygon points="101.208,73.947 109.328,69.926
		109.523,68.286 112.109,66.019 122.152,63.557 125.6,63.715 127.75,65.612 129.735,68.875 114.545,73.205 103.335,78.056
		99.849,74.885 	"/>
</g>
<g id="district_16">
	<polygon points="122.152,63.557 120.255,60.743
		117.726,61.817 116.523,60.647 121.762,54.42 123.785,54.112 126.653,55.701 129.395,55.675 130.87,58.217 132.412,57.205
		134.63,57.976 135.4,56.048 136.364,55.904 136.75,54.072 138.81,54.072 140.399,51.875 144.207,56.55 148.752,58.555
		148.8,60.145 146.583,61.447 145.5,68.587 137.29,66.986 129.735,68.875 127.75,65.612 125.6,63.715 	"/>
</g>
<g id="district_17">
	<polygon points="137.147,39.07 138.34,37.333
		142.646,37.107 146.936,38.175 149.005,41.5 150.249,45.601 161.782,48.973 155.678,63.135 159.45,63.135 159.45,66.983
		152.519,67.246 145.5,68.587 146.583,61.447 148.8,60.145 148.752,58.555 144.207,56.55 140.399,51.875 138.077,45.709 	"/>
</g>
<g id="district_18">
	<polygon points="121.762,54.42 121.718,48.16
		124.669,46.957 121.575,44.696 119.79,41.899 117.528,41.78 116.062,37.081 120.881,34.334 122.355,35.509 123.736,38.086
		129.574,41.375 134.72,41.697 137.147,39.07 138.077,45.709 140.399,51.875 138.81,54.072 136.75,54.072 136.364,55.904
		135.4,56.048 134.63,57.976 132.412,57.205 130.87,58.217 129.395,55.675 126.653,55.701 123.785,54.112 	"/>
</g>
<g id="district_19">
	<polygon points="97.22,55.82 97.412,54.181
		93.146,52.668 95.073,48.137 97.843,45.734 103.982,40.409 107.383,35.504 112.684,35.61 116.062,37.081 117.528,41.78
		119.79,41.899 121.575,44.696 124.669,46.957 121.718,48.16 121.762,54.42 114.86,53.265 106.466,62.832 104.354,55.917 	"/>
</g>
<g id="district_20">
	<polygon points="63.656,50.448 63.957,45.178
		73.789,46.045 74.994,44.985 78.705,44.407 77.066,37.948 79.279,33.117 82.321,33.117 84.3,30.504 87.763,31.984 86.348,33.536
		89.162,38.595 93.559,37.207 103.982,40.409 97.843,45.734 95.073,48.137 93.146,52.668 97.412,54.181 97.22,55.82 91.371,55.66
		87.324,57.181 86.146,54.824 79.263,54.871 76.702,53.163 68.342,51.574 	"/>
</g>
<g id="district_21">
	<polygon points="51.1,63.472 49.031,58.319
		49.338,56.069 44.158,54.261 44.607,49.931 50.054,45.063 51.548,42.653 54.921,41.834 55.552,45.655 57.038,47.046 57.449,50.588
		61.209,58.1 63.771,57.847 64.75,63.697 62.126,65.468 58.847,64.803 59.939,62.109 57.051,62.968 55.802,60.235 54.825,62.929
		"/>
</g>
<g id="district_22">
	<polygon points="9.108,97.284 1.196,92.527
		0.676,71.368 13.913,41.818 18.252,45.032 18.493,46.96 21.771,47.924 26.108,46.67 27.988,45.273 32.567,46.478 39.893,43.875
		44.859,40.115 45.378,45.111 44.077,48.582 44.607,49.931 44.158,54.261 49.338,56.069 49.031,58.319 51.1,63.472 49.219,69.673
		57.5,78.522 41.396,72.785 34.387,70.338 11.44,80.448 3.644,85.847 	"/>
</g>
<g id="district_23">
	<polygon points="44.274,33.723 45.378,45.111
		44.077,48.582 44.607,49.931 50.054,45.063 51.548,42.653 54.921,41.834 55.552,45.655 57.038,47.046 57.449,50.588 63.656,50.448
		63.957,45.178 60.149,40.455 60.802,35.675 52.455,34.618 51.349,33.29 	"/>
</g>
<g id="district_24">
	<polygon points="13.913,41.818 20.821,26.676
		22.54,23.326 28.849,21.223 35.854,15.473 43.166,15.16 49.08,23.181 44.274,33.723 44.859,40.115 39.893,43.875 32.567,46.478
		27.988,45.273 26.108,46.67 21.771,47.924 18.493,46.96 18.252,45.032 	"/>
</g>
<g id="district_25">
	<polygon points="44.274,33.723 51.349,33.29
		52.455,34.618 60.802,35.675 68.466,34.759 71.357,32.205 64.947,30.036 69.219,25.404 73.8,17.131 75.634,15.961 76.488,14.127
		74.433,13.622 73.579,12.356 70.891,12.451 71.997,13.938 71.713,14.459 71.429,14.981 68.171,15.708 65.42,15.392 60.702,14.286
		49.08,23.181 	"/>
</g>
<g id="district_26">
	<polygon points="63.957,45.178 60.149,40.455
		60.802,35.675 68.466,34.759 71.357,32.205 64.947,30.036 69.219,25.404 73.8,17.131 75.887,19.282 78.417,20.642 79.038,24.906
		76.698,25.349 74.011,28.732 77.679,29.27 79.165,30.788 79.279,33.117 77.066,37.948 78.705,44.407 74.994,44.985 73.789,46.045
		"/>
</g>
<g id="district_27">
	<polygon points="79.279,33.117 82.302,33.143
		84.3,30.504 87.763,31.984 91.868,30.08 95.66,24.768 88.858,12.34 80.82,7.616 71.979,7.366 60.702,14.286 65.42,15.392
		68.171,15.708 71.429,14.981 71.997,13.938 70.891,12.451 73.579,12.356 74.433,13.622 76.488,14.127 75.634,15.961 73.8,17.131
		75.887,19.282 78.417,20.642 79.038,24.906 76.698,25.349 74.011,28.732 77.679,29.27 79.165,30.788 	"/>
</g>
<g id="district_28">
	<polygon points="89.162,38.595 86.348,33.536
		87.763,31.984 91.868,30.08 95.66,24.768 108.289,27.988 113.588,25.895 120.881,34.334 116.062,37.081 112.684,35.61
		107.383,35.504 103.982,40.409 93.559,37.207 	"/>
</g>
<g id="district_Outline">
	<polygon points="9.108,97.284 1.196,92.527
		0.676,71.368 13.913,41.818 22.54,23.326 28.849,21.223 35.854,15.473 43.166,15.16 49.08,23.181 60.702,14.286 71.979,7.366
		80.82,7.616 88.858,12.34 95.66,24.768 108.289,27.988 113.588,25.895 120.881,34.334 122.355,35.509 123.736,38.086
		129.574,41.375 134.72,41.697 137.147,39.07 138.34,37.333 142.646,37.107 146.936,38.175 149.005,41.5 150.249,45.601
		161.782,48.973 155.678,63.135 159.45,63.135 159.45,66.983 152.519,67.246 145.5,68.587 137.29,66.986 129.735,68.875
		114.545,73.205 103.335,78.056 93.42,85.17 90.137,83.18 90.157,88.348 82.841,85.805 76.612,87.335 72.702,86.477 61.413,81.171
		58.553,85.061 50.913,80.534 52.391,78.569 57.842,81.091 58.936,79.398 57.5,78.522 34.387,70.338 11.44,80.448 3.644,85.847 	"/>
</g>
</svg>
