<?xml version="1.0" encoding="iso-8859-1"?>
<!-- Generator: Adobe Illustrator 16.0.0, SVG Export Plug-In . SVG Version: 6.00 Build 0)  -->
<!DOCTYPE svg PUBLIC "-//W3C//DTD SVG 1.1//EN" "http://www.w3.org/Graphics/SVG/1.1/DTD/svg11.dtd">
<svg version="1.1" id="Old_x5F_Curves" xmlns="http://www.w3.org/2000/svg" xmlns:xlink="http://www.w3.org/1999/xlink" x="0px"
	 y="0px" width="761.759px" height="538.688px" viewBox="0 0 761.759 538.688" style="enable-background:new 0 0 761.759 538.688;"
	 xml:space="preserve">
<polygon style="fill:none;stroke:#FF0000;stroke-linecap:round;stroke-linejoin:round;" points="451.767,282.274 452.665,274.643 
	432.794,267.595 441.771,246.498 454.669,235.309 483.259,210.508 499.092,187.672 523.778,188.163 539.507,195.013 
	546.339,216.895 556.868,217.449 565.181,230.472 579.59,241.002 565.845,246.604 566.049,275.754 533.913,270.378 494.821,314.925 
	484.985,282.722 "/>
<polygon style="fill:none;stroke:#FF0000;stroke-linecap:round;stroke-linejoin:round;" points="425.401,397.305 421.417,383.821 
	412.521,373.294 417.843,363.042 434.398,346.04 454.294,357.044 470.339,366.685 464.008,371.054 "/>
<polygon style="fill:none;stroke:#FF0000;stroke-linecap:round;stroke-linejoin:round;" points="454.294,357.044 470.339,366.685 
	508.153,347.96 490.021,348.928 487.303,319.348 494.821,314.925 484.985,282.722 451.767,282.274 449.917,328.378 460.461,341.104 
	"/>
<polygon style="fill:none;stroke:#FF0000;stroke-linecap:round;stroke-linejoin:round;" points="470.339,366.685 508.153,347.96 
	509.062,340.324 521.104,329.765 567.87,318.302 583.921,319.038 593.934,327.874 603.179,343.066 532.445,363.23 480.244,385.821 
	464.008,371.054 "/>
<polygon style="fill:none;stroke:#FF0000;stroke-linecap:round;stroke-linejoin:round;" points="63.834,217.072 96.005,146.562 
	104.006,130.962 133.388,121.165 166.007,94.392 200.056,92.933 227.599,130.285 205.218,179.374 207.942,209.143 184.814,226.651 
	150.699,238.771 129.376,233.16 120.624,239.669 100.424,245.504 85.162,241.015 84.039,232.037 "/>
<polygon style="fill:none;stroke:#FF0000;stroke-linecap:round;stroke-linejoin:round;" points="41.459,475.357 4.614,453.207 
	2.195,354.676 63.834,217.072 84.039,232.037 85.162,241.015 100.424,245.504 120.624,239.669 129.376,233.16 150.699,238.771 
	184.814,226.651 207.942,209.143 210.358,232.407 204.298,248.567 206.768,254.851 204.675,275.012 228.798,283.435 
	227.368,293.909 237.003,317.907 228.242,346.782 266.806,387.99 191.812,361.276 159.175,349.879 52.32,396.958 16.014,422.098 "/>
<polygon style="fill:none;stroke:#FF0000;stroke-linecap:round;stroke-linejoin:round;" points="237.003,317.907 227.368,293.909 
	228.798,283.435 204.675,275.012 206.768,254.851 232.129,232.183 239.087,220.961 254.798,217.145 257.733,234.94 264.654,241.419 
	266.569,257.911 284.076,292.891 296.003,291.713 300.568,318.955 288.346,327.201 273.076,324.106 278.167,311.562 
	264.713,315.561 258.896,302.835 254.351,315.38 "/>
<polygon style="fill:none;stroke:#FF0000;stroke-linecap:round;stroke-linejoin:round;" points="266.569,257.911 284.076,292.891 
	296.003,291.713 326.98,300.921 353.022,313.717 379.962,324.379 406.671,324.155 405.685,288.611 400.199,277.637 368.149,277.852 
	356.222,269.901 317.294,262.5 295.474,257.26 "/>
<polygon style="fill:none;stroke:#FF0000;stroke-linecap:round;stroke-linejoin:round;" points="330.817,399.053 331.987,352.903 
	370.201,362.48 400.762,372.045 400.46,390.207 405.022,398.711 387.997,409.821 "/>
<polygon style="fill:none;stroke:#FF0000;stroke-linecap:round;stroke-linejoin:round;" points="370.201,362.48 379.962,324.379 
	406.671,324.155 412.521,373.294 400.762,372.045 "/>
<polygon style="fill:none;stroke:#FF0000;stroke-linecap:round;stroke-linejoin:round;" points="277.076,337.013 273.076,324.106 
	288.346,327.201 300.568,318.955 296.003,291.713 326.98,300.921 353.022,313.717 379.962,324.379 370.201,362.48 331.987,352.903 
	312.886,359.088 "/>
<polygon style="fill:none;stroke:#FF0000;stroke-linecap:round;stroke-linejoin:round;" points="266.806,387.99 228.242,346.782 
	237.003,317.907 254.351,315.38 258.896,302.835 264.713,315.561 278.167,311.562 273.076,324.106 277.076,337.013 312.886,359.088 
	331.987,352.903 330.817,399.053 337.598,425.031 285.027,400.327 271.708,418.437 236.132,397.359 243.012,388.208 
	268.396,399.954 273.492,392.068 "/>
<polygon style="fill:none;stroke:#FF0000;stroke-linecap:round;stroke-linejoin:round;" points="295.474,257.26 296.873,232.717 
	342.659,236.757 348.271,231.819 365.552,229.126 357.921,199.051 368.225,176.553 382.39,176.553 391.604,164.386 407.727,171.277 
	401.138,178.503 414.244,202.064 434.718,195.601 483.259,210.508 454.669,235.309 441.771,246.498 432.794,267.595 
	452.665,274.643 451.767,282.274 424.532,281.527 405.685,288.611 400.199,277.637 368.149,277.852 356.222,269.901 317.294,262.5 
	"/>
<polygon style="fill:none;stroke:#FF0000;stroke-linecap:round;stroke-linejoin:round;" points="406.671,324.155 405.685,288.611 
	424.532,281.527 451.767,282.274 449.917,328.378 436.073,324.603 "/>
<polygon style="fill:none;stroke:#FF0000;stroke-linecap:round;stroke-linejoin:round;" points="205.218,179.374 210.358,232.407 
	204.298,248.567 206.768,254.851 232.129,232.183 239.087,220.961 254.798,217.145 257.733,234.94 264.654,241.419 266.569,257.911 
	295.474,257.26 296.873,232.717 279.142,210.721 282.182,188.466 243.313,183.545 238.159,177.36 "/>
<polygon style="fill:none;stroke:#FF0000;stroke-linecap:round;stroke-linejoin:round;" points="205.218,179.374 238.159,177.36 
	243.313,183.545 282.182,188.466 317.869,184.201 331.335,172.306 301.484,162.206 321.378,140.639 342.709,102.115 351.25,96.667 
	355.226,88.126 345.654,85.77 341.679,79.879 329.162,80.321 334.316,87.242 332.99,89.672 331.665,92.102 316.498,95.489 
	303.686,94.016 281.714,88.863 227.599,130.285 "/>
<polygon style="fill:none;stroke:#FF0000;stroke-linecap:round;stroke-linejoin:round;" points="368.225,176.553 382.3,176.672 
	391.604,164.386 407.727,171.277 426.846,162.41 444.504,137.675 412.833,79.805 375.403,57.805 334.234,56.64 281.714,88.863 
	303.686,94.016 316.498,95.489 331.665,92.102 334.316,87.242 329.162,80.321 341.679,79.879 345.654,85.77 355.226,88.126 
	351.25,96.667 342.709,102.115 352.428,112.129 364.209,118.461 367.104,138.319 356.207,140.38 343.689,156.136 360.771,158.64 
	367.692,165.708 "/>
<polygon style="fill:none;stroke:#FF0000;stroke-linecap:round;stroke-linejoin:round;" points="296.873,232.717 279.142,210.721 
	282.182,188.466 317.869,184.201 331.335,172.306 301.484,162.206 321.378,140.639 342.709,102.115 352.428,112.129 
	364.209,118.461 367.104,138.319 356.207,140.38 343.689,156.136 360.771,158.64 367.692,165.708 368.225,176.553 357.921,199.051 
	365.552,229.126 348.271,231.819 342.659,236.757 "/>
<polygon style="fill:none;stroke:#FF0000;stroke-linecap:round;stroke-linejoin:round;" points="414.244,202.064 401.138,178.503 
	407.727,171.277 426.846,162.41 444.504,137.675 503.313,152.669 527.987,142.924 561.95,182.221 539.507,195.013 523.778,188.163 
	499.092,187.672 483.259,210.508 434.718,195.601 "/>
<polygon style="fill:none;stroke:#FF0000;stroke-linecap:round;stroke-linejoin:round;" points="637.695,204.277 643.251,196.189 
	663.306,195.135 683.275,200.108 692.914,215.59 698.705,234.688 752.411,250.391 723.986,316.336 741.555,316.336 741.555,334.257 
	709.274,335.482 676.594,341.725 681.634,308.475 691.958,302.415 691.733,295.009 670.569,285.673 652.838,263.902 
	642.026,235.193 "/>
<polygon style="fill:none;stroke:#FF0000;stroke-linecap:round;stroke-linejoin:round;" points="566.049,275.754 565.845,246.604 
	579.59,241.002 565.181,230.472 556.868,217.449 546.339,216.895 539.507,195.013 561.95,182.221 568.818,187.695 575.248,199.693 
	602.429,215.011 626.39,216.507 637.695,204.277 642.026,235.193 652.838,263.902 645.436,274.135 635.847,274.135 634.052,282.664 
	629.563,283.338 625.972,292.315 615.647,288.724 608.465,293.437 601.594,281.598 588.832,281.718 575.472,274.323 "/>
<polygon style="fill:none;stroke:#FF0000;stroke-linecap:round;stroke-linejoin:round;" points="567.87,318.302 559.034,305.196 
	547.254,310.203 541.658,304.755 566.049,275.754 575.472,274.323 588.832,281.718 601.594,281.598 608.465,293.437 
	615.647,288.724 625.972,292.315 629.563,283.338 634.052,282.664 635.847,274.135 645.436,274.135 652.838,263.902 
	670.569,285.673 691.733,295.009 691.958,302.415 681.634,308.475 676.594,341.725 638.358,334.271 603.179,343.066 
	593.934,327.874 583.921,319.038 "/>
<polygon style="fill:none;stroke:#FF0000;stroke-linecap:round;stroke-linejoin:round;" points="490.021,348.928 487.303,319.348 
	494.821,314.925 533.913,270.378 566.049,275.754 541.658,304.755 547.254,310.203 559.034,305.196 567.87,318.302 521.104,329.765 
	509.062,340.324 508.153,347.96 "/>
<polygon style="fill:none;stroke:#FF0000;stroke-linecap:round;stroke-linejoin:round;" points="412.521,373.294 406.671,324.155 
	436.073,324.603 449.917,328.378 460.461,341.104 454.294,357.044 434.398,346.04 417.843,363.042 "/>
<polygon style="fill:none;stroke:#FF0000;stroke-linecap:round;stroke-linejoin:round;" points="418.878,433.744 384.811,421.905 
	387.997,409.821 405.022,398.711 414.72,399.367 418.785,409.682 "/>
<polygon style="fill:none;stroke:#FF0000;stroke-linecap:round;stroke-linejoin:round;" points="387.997,409.821 384.811,421.905 
	355.806,429.031 337.598,425.031 330.817,399.053 "/>
<polygon style="fill:none;stroke:#FF0000;stroke-linecap:round;stroke-linejoin:round;" points="405.022,398.711 400.46,390.207 
	400.762,372.045 412.521,373.294 421.417,383.821 425.401,397.305 418.785,409.682 414.72,399.367 "/>
<polygon style="fill:none;stroke:#FF0000;stroke-linecap:round;stroke-linejoin:round;" points="418.785,409.682 434.072,418.949 
	480.244,385.821 464.008,371.054 425.401,397.305 "/>
</svg>
