<?xml version="1.0" encoding="iso-8859-1"?>
<!-- Generator: Adobe Illustrator 16.0.0, SVG Export Plug-In . SVG Version: 6.00 Build 0)  -->
<!DOCTYPE svg PUBLIC "-//W3C//DTD SVG 1.1//EN" "http://www.w3.org/Graphics/SVG/1.1/DTD/svg11.dtd">
<svg version="1.1" xmlns="http://www.w3.org/2000/svg" xmlns:xlink="http://www.w3.org/1999/xlink" x="0px" y="0px"
	 width="521.57px" height="342.99px" viewBox="0 0 521.57 342.99" style="enable-background:new 0 0 521.57 342.99;"
	 xml:space="preserve">
<g id="Curves::1">
	<path style="fill:none;stroke:#000000;stroke-linecap:round;stroke-linejoin:round;" d="M245.436,199.474
		c-1.012-0.933-2.023-1.866-3.035-2.8c0-1.021,0-2.042,0-3.064c-0.646,0.446-1.293,0.893-1.94,1.339
		c-3.943,2.682-7.887,5.363-11.83,8.044c-0.676,1.264-1.352,2.528-2.028,3.792c0.572,0.342,1.547,0.604,1.635,1.043
		c0.216,1.084,1.077,1.176,1.745,1.505c0.815,0.401,1.753,0.416,2.538-0.115c1.619-1.096,3.187-2.267,4.785-3.395
		c0.181-0.127,0.335-0.258,0.464-0.391c0.708-0.775,1.415-1.55,2.122-2.325c0.73-0.605,1.342-1.144,1.988-1.637
		c0.484-0.37,1.076-0.617,1.506-1.035C243.977,199.863,244.53,199.331,245.436,199.474z"/>
</g>
<g id="Curves::2">
	<path style="fill:none;stroke:#000000;stroke-linecap:round;stroke-linejoin:round;" d="M245.436,199.474
		c-1.012-0.933-2.023-1.866-3.035-2.8c0-1.021,0-2.042,0-3.064c5.216-0.03,10.432-0.06,15.648-0.09
		c-1.032,0.312-2.055,0.652-3.088,0.96c-0.834,0.249-1.705,0.392-2.512,0.705c-1.086,0.42-2.202,0.843-3.168,1.474
		c-1.214,0.793-2.288,1.8-3.43,2.705c-0.1,0.079-0.268,0.136-0.389,0.115C245.454,199.477,245.445,199.476,245.436,199.474z"/>
</g>
<g id="Curves::3">
	<polygon style="fill:none;stroke:#000000;stroke-linecap:round;stroke-linejoin:round;" points="228.631,202.993 227.41,198.861 
		235.972,189.748 240.461,194.949 	"/>
</g>
<g id="Curves::4">
	<polygon style="fill:none;stroke:#000000;stroke-linecap:round;stroke-linejoin:round;" points="228.187,201.49 226.877,201.011 
		225.075,200.352 225.358,203.625 226.604,206.786 228.631,202.993 228.363,202.084 	"/>
</g>
<g id="Curves::5">
	<polygon style="fill:none;stroke:#000000;stroke-linecap:round;stroke-linejoin:round;" points="225.358,203.625 225.075,200.352 
		222.19,199.295 220.989,200.818 222.387,203.424 	"/>
</g>
<g id="Curves::6">
	<polygon style="fill:none;stroke:#000000;stroke-linecap:round;stroke-linejoin:round;" points="226.604,206.786 225.358,203.625 
		222.387,203.424 222.971,206.165 226.792,208.231 	"/>
</g>
<g id="Curves::7">
	<polygon style="fill:none;stroke:#000000;stroke-linecap:round;stroke-linejoin:round;" points="226.792,208.231 222.971,206.165 
		221.765,207.042 222.021,209.783 226.836,209.93 	"/>
</g>
<g id="Curves::8">
	<polygon style="fill:none;stroke:#000000;stroke-linecap:round;stroke-linejoin:round;" points="226.836,209.93 222.021,209.783 
		221.765,207.042 222.971,206.165 222.387,203.424 218.887,206.473 217.17,206.828 216.193,210.531 226.632,214.159 	"/>
</g>
<g id="Curves::9">
	<polygon style="fill:none;stroke:#000000;stroke-linecap:round;stroke-linejoin:round;" points="207.306,212.715 216.193,210.531 
		217.17,206.828 211.781,206.46 209.176,205.395 207.044,207.141 	"/>
</g>
<g id="Curves::10">
	<polygon style="fill:none;stroke:#000000;stroke-linecap:round;stroke-linejoin:round;" points="207.306,212.715 201.727,211.489 
		199.649,203.529 206.896,204.803 	"/>
</g>
<g id="Curves::11">
	<polygon style="fill:none;stroke:#000000;stroke-linecap:round;stroke-linejoin:round;" points="201.727,211.489 185.618,203.919 
		181.537,209.469 170.635,203.01 172.743,200.206 180.521,203.805 182.083,201.388 180.034,200.139 181.608,192.329 
		199.649,203.529 	"/>
</g>
<g id="Curves::12">
	<polygon style="fill:none;stroke:#000000;stroke-linecap:round;stroke-linejoin:round;" points="180.034,200.139 168.217,187.512 
		170.902,178.664 176.218,177.89 177.61,174.046 179.393,177.945 183.516,176.72 181.956,180.563 183.181,184.519 	"/>
</g>
<g id="Curves::13">
	<polygon style="fill:none;stroke:#000000;stroke-linecap:round;stroke-linejoin:round;" points="199.649,203.529 181.608,192.329 
		183.181,184.519 194.154,191.283 199.381,199.433 	"/>
</g>
<g id="Curves::14">
	<polygon style="fill:none;stroke:#000000;stroke-linecap:round;stroke-linejoin:round;" points="199.649,203.529 199.381,199.433 
		194.154,191.283 200.007,189.387 200.693,194.214 204.003,195.029 207.36,198.962 201.952,199.71 	"/>
</g>
<g id="Curves::15">
	<polygon style="fill:none;stroke:#000000;stroke-linecap:round;stroke-linejoin:round;" points="199.649,203.529 201.952,199.71 
		207.36,198.962 208.247,197.092 212.311,197.335 211.781,206.46 209.176,205.395 207.044,207.141 206.896,204.803 	"/>
</g>
<g id="Curves::16">
	<polygon style="fill:none;stroke:#000000;stroke-linecap:round;stroke-linejoin:round;" points="211.781,206.46 212.311,197.335 
		220.989,200.818 222.387,203.424 218.887,206.473 217.17,206.828 	"/>
</g>
<g id="Curves::17">
	<polygon style="fill:none;stroke:#000000;stroke-linecap:round;stroke-linejoin:round;" points="228.187,201.49 222.19,199.295 
		221.081,195.253 224.685,195.636 227.41,198.861 	"/>
</g>
<g id="Curves::18">
	<polygon style="fill:none;stroke:#000000;stroke-linecap:round;stroke-linejoin:round;" points="227.41,198.861 224.685,195.636 
		226.315,192.494 229.361,192.902 231.006,195.034 	"/>
</g>
<g id="Curves::19">
	<polygon style="fill:none;stroke:#000000;stroke-linecap:round;stroke-linejoin:round;" points="231.006,195.034 229.361,192.902 
		233.317,189.641 235.972,189.748 	"/>
</g>
<g id="Curves::20">
	<polygon style="fill:none;stroke:#000000;stroke-linecap:round;stroke-linejoin:round;" points="229.361,192.902 226.315,192.494 
		231.388,187.285 233.317,189.641 	"/>
</g>
<g id="Curves::21">
	<polygon style="fill:none;stroke:#000000;stroke-linecap:round;stroke-linejoin:round;" points="226.315,192.494 224.028,191.435 
		223.923,188.9 227.377,185.725 231.388,187.285 	"/>
</g>
<g id="Curves::22">
	<polygon style="fill:none;stroke:#000000;stroke-linecap:round;stroke-linejoin:round;" points="224.685,195.636 226.315,192.494 
		224.028,191.435 223.923,188.9 219.901,189.09 211.717,192.322 221.081,195.253 	"/>
</g>
<g id="Curves::23">
	<polygon style="fill:none;stroke:#000000;stroke-linecap:round;stroke-linejoin:round;" points="220.989,200.818 222.19,199.295 
		221.081,195.253 211.717,192.322 212.311,197.335 	"/>
</g>
<g id="Curves::24">
	<polygon style="fill:none;stroke:#000000;stroke-linecap:round;stroke-linejoin:round;" points="207.36,198.962 208.247,197.092 
		212.311,197.335 211.717,192.322 200.007,189.387 200.693,194.214 204.003,195.029 	"/>
</g>
<g id="Curves::25">
	<polygon style="fill:none;stroke:#000000;stroke-linecap:round;stroke-linejoin:round;" points="211.717,192.322 219.901,189.09 
		214.708,180.647 206.453,177.38 200.007,189.387 	"/>
</g>
<g id="Curves::26">
	<polygon style="fill:none;stroke:#000000;stroke-linecap:round;stroke-linejoin:round;" points="200.007,189.387 195.675,188.35 
		192.427,185.958 198.473,173.459 206.453,177.38 	"/>
</g>
<g id="Curves::27">
	<polygon style="fill:none;stroke:#000000;stroke-linecap:round;stroke-linejoin:round;" points="200.007,189.387 194.154,191.283 
		183.181,184.519 181.956,180.563 186.635,181.512 190.38,178.985 188.981,170.638 198.473,173.459 192.427,185.958 195.675,188.35 
			"/>
</g>
<g id="Curves::28">
	<polygon style="fill:none;stroke:#000000;stroke-linecap:round;stroke-linejoin:round;" points="206.453,177.38 198.473,173.459 
		193.308,171.871 195.505,161.686 207.433,163.954 211.088,166.391 	"/>
</g>
<g id="Curves::29">
	<polygon style="fill:none;stroke:#000000;stroke-linecap:round;stroke-linejoin:round;" points="206.453,177.38 211.088,166.391 
		220.909,166.325 222.59,169.687 222.892,180.578 214.708,180.647 	"/>
</g>
<g id="Curves::30">
	<polygon style="fill:none;stroke:#000000;stroke-linecap:round;stroke-linejoin:round;" points="219.901,189.09 214.708,180.647 
		222.892,180.578 227.377,185.725 223.923,188.9 	"/>
</g>
<g id="Curves::31">
	<polygon style="fill:none;stroke:#000000;stroke-linecap:round;stroke-linejoin:round;" points="222.892,180.578 222.59,169.687 
		228.365,167.516 231.901,180.716 	"/>
</g>
<g id="Curves::32">
	<polygon style="fill:none;stroke:#000000;stroke-linecap:round;stroke-linejoin:round;" points="227.377,185.725 222.892,180.578 
		231.901,180.716 236.143,181.873 231.388,187.285 	"/>
</g>
<g id="Curves::33">
	<polygon style="fill:none;stroke:#000000;stroke-linecap:round;stroke-linejoin:round;" points="231.388,187.285 236.143,181.873 
		239.374,185.772 236.783,187.407 237.432,190.668 235.972,189.748 233.317,189.641 	"/>
</g>
<g id="Curves::34">
	<polygon style="fill:none;stroke:#000000;stroke-linecap:round;stroke-linejoin:round;" points="239.374,185.772 236.143,181.873 
		236.58,171.003 240.711,171.567 242.327,182.207 	"/>
</g>
<g id="Curves::35">
	<polygon style="fill:none;stroke:#000000;stroke-linecap:round;stroke-linejoin:round;" points="236.143,181.873 231.901,180.716 
		228.365,167.516 236.71,167.745 	"/>
</g>
<g id="Curves::36">
	<polygon style="fill:none;stroke:#000000;stroke-linecap:round;stroke-linejoin:round;" points="236.58,171.003 236.71,167.745 
		246.889,167.883 254.454,172.628 249.903,177.75 242.327,182.207 240.711,171.567 	"/>
</g>
<g id="Curves::37">
	<polygon style="fill:none;stroke:#000000;stroke-linecap:round;stroke-linejoin:round;" points="248.072,184.257 242.327,182.207 
		247.599,179.105 	"/>
</g>
<g id="Curves::38">
	<polygon style="fill:none;stroke:#000000;stroke-linecap:round;stroke-linejoin:round;" points="248.432,188.169 248.072,184.257 
		242.327,182.207 239.374,185.772 236.783,187.407 237.432,190.668 	"/>
</g>
<g id="Curves::39">
	<polygon style="fill:none;stroke:#000000;stroke-linecap:round;stroke-linejoin:round;" points="237.432,190.668 235.972,189.748 
		240.461,194.949 242.401,193.61 247.526,190.603 253.988,187.873 248.432,188.169 	"/>
</g>
<g id="Curves::40">
	<polygon style="fill:none;stroke:#000000;stroke-linecap:round;stroke-linejoin:round;" points="248.432,188.169 247.599,179.105 
		249.903,177.75 254.454,172.628 257.708,175.577 257.956,182.298 254.267,185.533 253.988,187.873 	"/>
</g>
<g id="Curves::41">
	<polygon style="fill:none;stroke:#000000;stroke-linecap:round;stroke-linejoin:round;" points="257.708,175.577 254.454,172.628 
		261.881,164.1 271.729,165.748 264.254,174.634 265.969,176.303 269.579,174.769 272.286,178.785 267.315,181.016 257.956,182.298 
			"/>
</g>
<g id="Curves::42">
	<polygon style="fill:none;stroke:#000000;stroke-linecap:round;stroke-linejoin:round;" points="257.956,182.298 267.315,181.016 
		270.769,186.754 261.967,189.149 	"/>
</g>
<g id="Curves::43">
	<polygon style="fill:none;stroke:#000000;stroke-linecap:round;stroke-linejoin:round;" points="261.967,189.149 257.956,182.298 
		254.267,185.533 253.988,187.873 247.526,190.603 242.401,193.61 258.049,193.52 261.432,192.552 	"/>
</g>
<g id="Curves::44">
	<polygon style="fill:none;stroke:#000000;stroke-linecap:round;stroke-linejoin:round;" points="261.432,192.552 261.967,189.149 
		270.769,186.754 281.689,184.045 283.106,186.374 	"/>
</g>
<g id="Curves::45">
	<polygon style="fill:none;stroke:#000000;stroke-linecap:round;stroke-linejoin:round;" points="270.769,186.754 267.315,181.016 
		272.286,178.785 277.205,179.011 280.273,181.718 281.689,184.045 	"/>
</g>
<g id="Curves::46">
	<polygon style="fill:none;stroke:#000000;stroke-linecap:round;stroke-linejoin:round;" points="272.286,178.785 269.579,174.769 
		275.986,171.34 283.025,172.288 284.726,171.166 287.064,171.785 286.857,174.536 288.577,177.081 293.46,176.737 297.105,178.043 
		293.941,181 293.885,183.678 283.106,186.374 281.689,184.045 280.273,181.718 277.205,179.011 	"/>
</g>
<g id="Curves::47">
	<polygon style="fill:none;stroke:#000000;stroke-linecap:round;stroke-linejoin:round;" points="265.969,176.303 264.254,174.634 
		271.729,165.748 274.616,165.309 278.709,167.575 282.62,167.538 284.726,171.166 283.025,172.288 275.986,171.34 269.579,174.769 
			"/>
</g>
<g id="Curves::48">
	<polygon style="fill:none;stroke:#000000;stroke-linecap:round;stroke-linejoin:round;" points="293.885,183.678 293.941,181 
		297.105,178.043 293.46,176.737 288.577,177.081 286.857,174.536 287.064,171.785 284.726,171.166 286.926,169.722 290.09,170.822 
		291.19,168.071 292.566,167.865 293.116,165.251 296.004,165.32 298.322,162.116 303.755,168.787 310.241,171.647 310.31,173.917 
		307.146,175.774 305.602,185.962 	"/>
</g>
<g id="Curves::49">
	<polygon style="fill:none;stroke:#000000;stroke-linecap:round;stroke-linejoin:round;" points="303.755,168.787 298.322,162.116 
		302.38,155.651 304.718,155.72 305.2,153.313 310.22,150.012 310.603,147.312 312.377,153.164 	"/>
</g>
<g id="Curves::50">
	<polygon style="fill:none;stroke:#000000;stroke-linecap:round;stroke-linejoin:round;" points="298.322,162.116 302.38,155.651 
		304.718,155.72 305.2,153.313 310.22,150.012 310.603,147.312 307.648,142.568 301.53,141.044 295.384,141.367 293.682,143.845 
		295.009,153.319 	"/>
</g>
<g id="Curves::51">
	<polygon style="fill:none;stroke:#000000;stroke-linecap:round;stroke-linejoin:round;" points="295.009,153.319 288.682,155.245 
		285.981,153.91 279.698,152.552 275.877,155.099 271.462,151.872 268.915,147.882 265.689,147.712 263.595,141.007 
		270.472,137.087 272.577,138.765 274.547,142.441 282.876,147.135 290.218,147.593 293.682,143.845 	"/>
</g>
<g id="Curves::52">
	<polygon style="fill:none;stroke:#000000;stroke-linecap:round;stroke-linejoin:round;" points="298.322,162.116 295.009,153.319 
		288.682,155.245 285.981,153.91 279.698,152.552 275.877,155.099 271.666,156.815 271.729,165.748 274.616,165.309 
		278.709,167.575 282.62,167.538 284.726,171.166 286.926,169.722 290.09,170.822 291.19,168.071 292.566,167.865 293.116,165.251 
		296.004,165.32 	"/>
</g>
<g id="Curves::53">
	<polygon style="fill:none;stroke:#000000;stroke-linecap:round;stroke-linejoin:round;" points="271.729,165.748 271.666,156.815 
		275.877,155.099 271.462,151.872 268.915,147.882 265.689,147.712 263.595,141.007 259.405,147.526 250.259,146.632 
		247.989,150.346 250.259,155.229 245.238,162.793 236.985,165.407 236.71,167.745 246.889,167.883 254.454,172.628 261.881,164.1 	
		"/>
</g>
<g id="Curves::54">
	<polygon style="fill:none;stroke:#000000;stroke-linecap:round;stroke-linejoin:round;" points="245.238,162.793 244.069,156.054 
		246.36,145.755 251.211,138.757 258.776,138.908 263.595,141.007 259.405,147.526 250.259,146.632 247.989,150.346 
		250.259,155.229 	"/>
</g>
<g id="Curves::55">
	<polygon style="fill:none;stroke:#000000;stroke-linecap:round;stroke-linejoin:round;" points="236.985,165.407 230.896,163.248 
		233.647,156.783 246.36,145.755 244.069,156.054 245.238,162.793 	"/>
</g>
<g id="Curves::56">
	<polygon style="fill:none;stroke:#000000;stroke-linecap:round;stroke-linejoin:round;" points="228.365,167.516 236.71,167.745 
		236.985,165.407 230.896,163.248 233.647,156.783 237.6,153.354 224.844,150.25 218.536,155.021 222.554,157.535 	"/>
</g>
<g id="Curves::57">
	<polygon style="fill:none;stroke:#000000;stroke-linecap:round;stroke-linejoin:round;" points="228.365,167.516 222.59,169.687 
		220.909,166.325 211.088,166.391 207.433,163.954 195.505,161.686 188.819,160.081 189.248,152.56 203.277,153.798 
		204.997,152.285 210.292,151.46 214.518,152.508 218.536,155.021 222.554,157.535 	"/>
</g>
<g id="Curves::58">
	<polygon style="fill:none;stroke:#000000;stroke-linecap:round;stroke-linejoin:round;" points="193.308,171.871 188.981,170.638 
		185.326,170.999 179.962,160.28 188.819,160.081 195.505,161.686 	"/>
</g>
<g id="Curves::59">
	<polygon style="fill:none;stroke:#000000;stroke-linecap:round;stroke-linejoin:round;" points="181.956,180.563 186.635,181.512 
		190.38,178.985 188.981,170.638 185.326,170.999 179.962,160.28 175.927,164.715 176.157,169.175 171.143,169.063 168.388,168.101 
		167.95,171.311 170.902,178.664 176.218,177.89 177.61,174.046 179.393,177.945 183.516,176.72 	"/>
</g>
<g id="Curves::60">
	<polygon style="fill:none;stroke:#000000;stroke-linecap:round;stroke-linejoin:round;" points="180.034,200.139 157.055,191.953 
		160.849,177.759 155.632,168.203 156.182,162.15 160.997,165.521 168.388,168.101 167.95,171.311 170.902,178.664 168.217,187.512 
			"/>
</g>
<g id="Curves::61">
	<polygon style="fill:none;stroke:#000000;stroke-linecap:round;stroke-linejoin:round;" points="157.055,191.953 147.054,188.461 
		142.914,173.957 145.041,170.885 151.299,167.721 155.632,168.203 160.849,177.759 	"/>
</g>
<g id="Curves::62">
	<polygon style="fill:none;stroke:#000000;stroke-linecap:round;stroke-linejoin:round;" points="147.054,188.461 114.312,202.887 
		114.179,183.069 120.356,175.401 142.914,173.957 	"/>
</g>
<g id="Curves::63">
	<polygon style="fill:none;stroke:#000000;stroke-linecap:round;stroke-linejoin:round;" points="114.312,202.887 103.187,210.59 
		110.984,226.91 96.979,219.631 96.542,194.697 117.84,147.766 124.031,152.352 124.375,155.103 129.052,156.479 135.241,154.69 
		137.923,152.696 144.457,154.415 128.811,168.478 130.186,171.503 134.725,170.885 140.777,165.933 145.041,170.885 
		142.914,173.957 120.356,175.401 114.179,183.069 	"/>
</g>
<g id="Curves::64">
	<polygon style="fill:none;stroke:#000000;stroke-linecap:round;stroke-linejoin:round;" points="145.041,170.885 140.777,165.933 
		134.725,170.885 130.186,171.503 128.811,168.478 144.457,154.415 154.911,150.701 161.998,145.337 162.738,152.465 
		160.881,157.417 161.637,159.342 160.997,165.521 156.182,162.15 155.632,168.203 151.299,167.721 	"/>
</g>
<g id="Curves::65">
	<polygon style="fill:none;stroke:#000000;stroke-linecap:round;stroke-linejoin:round;" points="160.997,165.521 161.637,159.342 
		169.409,152.396 171.541,148.958 173.948,148.373 171.936,153.933 172.955,162.168 175.927,164.715 176.157,169.175 
		171.143,169.063 	"/>
</g>
<g id="Curves::66">
	<polygon style="fill:none;stroke:#000000;stroke-linecap:round;stroke-linejoin:round;" points="175.927,164.715 172.955,162.168 
		171.936,153.933 173.948,148.373 176.355,147.789 177.254,153.241 179.375,155.227 179.962,160.28 	"/>
</g>
<g id="Curves::67">
	<polygon style="fill:none;stroke:#000000;stroke-linecap:round;stroke-linejoin:round;" points="179.962,160.28 188.819,160.081 
		189.248,152.56 183.814,145.82 184.746,139 172.835,137.493 172.435,144.144 176.355,147.789 177.254,153.241 179.375,155.227 	"/>
</g>
<g id="Curves::68">
	<polygon style="fill:none;stroke:#000000;stroke-linecap:round;stroke-linejoin:round;" points="176.355,147.789 172.435,144.144 
		172.835,137.493 171.256,135.598 161.163,136.215 161.998,145.337 162.738,152.465 160.881,157.417 161.637,159.342 
		169.409,152.396 171.541,148.958 	"/>
</g>
<g id="Curves::69">
	<polygon style="fill:none;stroke:#000000;stroke-linecap:round;stroke-linejoin:round;" points="161.998,145.337 161.163,136.215 
		156.858,133.781 151.059,140.523 137.235,147.4 134.003,141.279 117.84,147.766 124.031,152.352 124.375,155.103 129.052,156.479 
		135.241,154.69 137.923,152.696 144.457,154.415 154.911,150.701 	"/>
</g>
<g id="Curves::70">
	<polygon style="fill:none;stroke:#000000;stroke-linecap:round;stroke-linejoin:round;" points="117.84,147.766 134.003,141.279 
		137.235,147.4 151.059,140.523 156.858,133.781 151.111,129.045 143.373,129.807 137.733,126.781 127.698,126.161 	"/>
</g>
<g id="Curves::71">
	<polygon style="fill:none;stroke:#000000;stroke-linecap:round;stroke-linejoin:round;" points="127.698,126.161 130.149,121.38 
		139.152,118.378 149.147,110.174 159.581,109.728 168.021,121.173 161.163,136.215 156.858,133.781 151.111,129.045 
		143.373,129.807 137.733,126.781 	"/>
</g>
<g id="Curves::72">
	<polygon style="fill:none;stroke:#000000;stroke-linecap:round;stroke-linejoin:round;" points="161.163,136.215 168.021,121.173 
		172.573,130.267 190.661,130.954 199.808,134.049 195.681,137.694 184.746,139 172.835,137.493 171.256,135.598 	"/>
</g>
<g id="Curves::73">
	<polygon style="fill:none;stroke:#000000;stroke-linecap:round;stroke-linejoin:round;" points="172.573,130.267 168.021,121.173 
		184.603,108.48 191.335,110.06 195.261,110.511 199.909,109.473 200.721,107.984 199.142,105.863 202.977,105.728 204.195,107.533 
		207.128,108.254 205.91,110.872 203.292,112.541 196.756,124.346 190.661,130.954 	"/>
</g>
<g id="Curves::74">
	<polygon style="fill:none;stroke:#000000;stroke-linecap:round;stroke-linejoin:round;" points="203.593,129.094 198.595,126.629 
		196.756,124.346 203.292,112.541 206.271,115.609 209.88,117.55 210.768,123.635 207.429,124.266 	"/>
</g>
<g id="Curves::75">
	<polygon style="fill:none;stroke:#000000;stroke-linecap:round;stroke-linejoin:round;" points="203.593,129.094 207.429,124.266 
		210.768,123.635 209.88,117.55 206.271,115.609 203.292,112.541 205.91,110.872 207.128,108.254 204.195,107.533 202.977,105.728 
		199.142,105.863 200.721,107.984 199.909,109.473 195.261,110.511 191.335,110.06 184.603,108.48 200.696,98.607 213.311,98.964 
		224.78,105.705 213.881,111.903 214.738,120.702 210.948,132.027 208.827,129.861 	"/>
</g>
<g id="Curves::76">
	<polygon style="fill:none;stroke:#000000;stroke-linecap:round;stroke-linejoin:round;" points="211.111,135.35 210.948,132.027 
		214.738,120.702 213.881,111.903 219.838,108.515 224.539,114.032 224.313,117.055 229.994,122.644 234.485,123.438 
		229.074,131.017 223.215,133.733 218.275,131.622 215.424,135.387 	"/>
</g>
<g id="Curves::77">
	<polygon style="fill:none;stroke:#000000;stroke-linecap:round;stroke-linejoin:round;" points="211.111,135.35 210.948,132.027 
		208.827,129.861 203.593,129.094 198.595,126.629 196.756,124.346 190.661,130.954 199.808,134.049 195.681,137.694 184.746,139 
		183.814,145.82 189.248,152.56 203.277,153.798 204.997,152.285 210.292,151.46 207.954,142.244 	"/>
</g>
<g id="Curves::78">
	<polygon style="fill:none;stroke:#000000;stroke-linecap:round;stroke-linejoin:round;" points="210.292,151.46 214.518,152.508 
		213.571,150.071 220.249,147.183 225.212,143.167 221.196,135.948 223.215,133.733 218.275,131.622 215.424,135.387 
		211.111,135.35 207.954,142.244 	"/>
</g>
<g id="Curves::79">
	<polygon style="fill:none;stroke:#000000;stroke-linecap:round;stroke-linejoin:round;" points="223.215,133.733 227.545,135.687 
		234.848,134.752 245.207,138.299 252.505,128.032 234.485,123.438 229.074,131.017 	"/>
</g>
<g id="Curves::80">
	<polygon style="fill:none;stroke:#000000;stroke-linecap:round;stroke-linejoin:round;" points="218.536,155.021 214.518,152.508 
		213.571,150.071 220.249,147.183 225.212,143.167 231.486,141.187 246.36,145.755 237.6,153.354 224.844,150.25 	"/>
</g>
<g id="Curves::81">
	<polygon style="fill:none;stroke:#000000;stroke-linecap:round;stroke-linejoin:round;" points="305.602,185.962 307.146,175.774 
		310.31,173.917 310.241,171.647 303.755,168.787 312.377,153.164 328.833,157.976 320.124,178.183 325.507,178.183 
		325.507,183.674 315.615,184.049 	"/>
</g>
</svg>
